<svg xmlns="http://www.w3.org/2000/svg" xmlns:xlink="http://www.w3.org/1999/xlink" version="1.1" id="Camada_1" x="0px" y="0px" viewBox="0 0 93.1 31" style="enable-background:new 0 0 93.1 31;" xml:space="preserve" width="93.1"  height="31" >
<style type="text/css">
	.st0{fill:#FF1219;}
</style>
<g>
	<path class="st0" d="M4,26.9c-2.6-2.7-4-6.5-4-11.4C0,10.6,1.3,6.8,4,4c2.6-2.7,6.3-4,10.9-4c2.6,0,5,0.5,7.1,1.6   c2.1,1.1,3.8,2.5,5,4.5c1.2,1.9,1.8,4.1,1.8,6.5h-8.4c-0.1-1.7-0.7-3.1-1.7-4.1c-1-1-2.3-1.6-3.8-1.6c-1.8,0-3.2,0.8-4.3,2.3   S9,12.8,9,15.5c0,2.7,0.5,4.8,1.6,6.4c1.1,1.5,2.5,2.3,4.3,2.3c1.5,0,2.8-0.5,3.8-1.6c1-1,1.6-2.4,1.7-4.2h8.4   c0,2.4-0.6,4.6-1.8,6.6c-1.2,1.9-2.8,3.4-5,4.5c-2.1,1.1-4.5,1.6-7.2,1.6C10.2,31,6.6,29.6,4,26.9z"/>
	<path class="st0" d="M32.1,30.5V0.5h12.8c4.6,0,8.1,1.3,10.6,3.8c2.5,2.5,3.8,6.2,3.8,10.9c0,4.8-1.3,8.5-3.8,11.2s-6.1,4-10.6,4   H32.1z M40.9,23.5h2.8c4.5,0,6.7-2.7,6.7-8.2c0-2.5-0.6-4.4-1.8-5.8c-1.2-1.3-2.8-2-4.9-2h-2.8V23.5z"/>
	<path class="st0" d="M62.8,30.5V0.5h21v7H71.6v5.7h11.1v6.5H71.6v10.7H62.8z"/>
	<path class="st0" d="M85.7,29.5c-0.8-0.8-1.3-1.9-1.3-3.1c0-1.2,0.4-2.2,1.3-3c0.8-0.8,1.9-1.3,3-1.3c1.2,0,2.2,0.4,3.1,1.3   s1.3,1.9,1.3,3c0,1.2-0.4,2.2-1.3,3.1c-0.8,0.8-1.9,1.3-3.1,1.3C87.6,30.8,86.6,30.3,85.7,29.5z"/>
</g>
</svg>