<svg xmlns="http://www.w3.org/2000/svg" xmlns:xlink="http://www.w3.org/1999/xlink" version="1.1" id="Camada_1" x="0px" y="0px" viewBox="0 0 68.7 65.2" style="enable-background:new 0 0 68.7 65.2;" xml:space="preserve" width="68.7"  height="65.2" >
<style type="text/css">
	.st0{fill:#DF1913;}
	.st1{fill:#FFFFFF;}
</style>
<g>
	<g>
		<path class="st0" d="M4.2,34.3v0.9c0,1.2-0.7,1.7-2,1.7c-1.3,0-2-0.6-2-1.7v-3.1c0-1.1,0.7-1.7,2-1.7c1.3,0,2,0.5,2,1.7v0.8H2.7    v-0.7c0-0.3-0.2-0.5-0.4-0.5c-0.2,0-0.4,0.2-0.4,0.5v2.8c0,0.3,0.2,0.5,0.4,0.5c0.2,0,0.4-0.2,0.4-0.5v-0.8H4.2z"/>
		<path class="st0" d="M7.3,34V35c0,0.4,0.2,0.5,0.4,0.5c0.3,0,0.4-0.1,0.4-0.5v-0.3h1.5v0.5c0,1.1-0.6,1.7-2.1,1.7    c-1.4,0-2.1-0.6-2.1-1.7v-2.7c0-1.4,0.5-2,2.1-2c1.5,0,2.1,0.6,2.1,2V34H7.3z M8.2,32.9v-0.6c0-0.4-0.2-0.6-0.4-0.6    c-0.3,0-0.4,0.2-0.4,0.6v0.6H8.2z"/>
		<path class="st0" d="M11.2,30.6h1.6v0.7h0c0.2-0.5,0.7-0.9,1.3-0.9c0.7,0,1.3,0.4,1.3,1.5v4.8h-1.7v-4.3c0-0.4-0.1-0.6-0.4-0.6    c-0.3,0-0.4,0.2-0.4,0.7v4.2h-1.7V30.6z"/>
		<path class="st0" d="M17.1,29h1.7v1.6h0.9V32h-0.9v2.5c0,0.7,0.1,0.8,0.5,0.8h0.5v1.5H18c-0.6,0-0.9-0.4-0.9-1V32h-0.5v-1.4h0.5    V29z"/>
		<path class="st0" d="M20.9,30.6h1.6v1.2h0c0.5-1,0.7-1.2,1.4-1.3v2h0c-0.1,0-0.2,0-0.3,0c-0.6,0-1,0.4-1,1.1v3.1h-1.7V30.6z"/>
		<path class="st0" d="M25.1,32.5V32c0-1,0.7-1.5,2-1.5c1.3,0,2,0.6,2,1.5v3.6c0,0.5,0.1,0.9,0.2,1.2h-1.6c-0.1-0.2-0.1-0.4-0.1-0.7    h0c-0.2,0.6-0.7,0.8-1.2,0.8c-0.9,0-1.4-0.5-1.4-1.7v-0.4c0-2.5,2.6-1.4,2.6-2.6c0-0.2-0.1-0.5-0.4-0.5c-0.4,0-0.5,0.2-0.5,0.9    H25.1z M27.4,33.8c-0.5,0.4-0.8,0.4-0.8,1.1V35c0,0.4,0.2,0.5,0.5,0.5c0.1,0,0.3-0.1,0.3-0.4V33.8z"/>
		<path class="st0" d="M32.4,28.3v8.4h-1.7v-8.4H32.4z"/>
		<path class="st0" d="M2.9,50.1L2.9,50.1L2.9,50.1c-0.2,0.6-0.7,1-1.3,1c-0.7,0-1.2-0.5-1.2-1.3V46c0-0.8,0.5-1.3,1.2-1.3    c0.7,0,1.1,0.4,1.2,0.8h0v-3h1.7v8.4H2.9V50.1z M2,49.2c0,0.4,0.1,0.5,0.4,0.5c0.2,0,0.4-0.2,0.4-0.5v-2.7c0-0.4-0.2-0.5-0.4-0.5    c-0.2,0-0.4,0.2-0.4,0.5V49.2z"/>
		<path class="st0" d="M7.7,48.2v0.9c0,0.4,0.2,0.5,0.4,0.5c0.3,0,0.4-0.1,0.4-0.5v-0.3h1.5v0.5c0,1.1-0.6,1.7-2.1,1.7    C6.7,51,6,50.5,6,49.4v-2.7c0-1.4,0.5-2,2.1-2c1.5,0,2.1,0.6,2.1,2v1.6H7.7z M8.6,47.1v-0.6c0-0.4-0.2-0.6-0.4-0.6    c-0.3,0-0.4,0.2-0.4,0.6v0.6H8.6z"/>
		<path class="st0" d="M2.3,60.3v4.7H0.6v-4.7H0V59h0.6v-0.8c0-1.1,0.5-1.6,1.6-1.6h1V58H2.8c-0.3,0-0.5,0.1-0.5,0.4V59h0.9v1.4H2.3    z"/>
		<path class="st0" d="M8.5,65.1H6.9v-0.7h0c-0.2,0.5-0.7,0.9-1.3,0.9c-0.7,0-1.3-0.4-1.3-1.5V59H6v4.3c0,0.4,0.1,0.6,0.4,0.6    c0.3,0,0.4-0.2,0.4-0.7V59h1.7V65.1z"/>
		<path class="st0" d="M10.1,59h1.6v0.7h0c0.2-0.5,0.7-0.9,1.3-0.9c0.7,0,1.3,0.4,1.3,1.5v4.8h-1.7v-4.4c0-0.4-0.1-0.6-0.4-0.6    c-0.3,0-0.4,0.2-0.4,0.7v4.2h-1.7V59z"/>
		<path class="st0" d="M19.7,62.6v0.9c0,1.2-0.7,1.7-2,1.7c-1.3,0-2-0.6-2-1.7v-3c0-1.1,0.7-1.7,2-1.7c1.3,0,2,0.5,2,1.7v0.8h-1.5    v-0.7c0-0.3-0.2-0.5-0.4-0.5c-0.2,0-0.4,0.2-0.4,0.5v2.8c0,0.3,0.2,0.5,0.4,0.5c0.2,0,0.4-0.2,0.4-0.5v-0.8H19.7z"/>
		<path class="st0" d="M22.9,59v6.1h-1.7V59H22.9z M21.3,58.2v-1.6h1.5v1.6H21.3z"/>
		<path class="st0" d="M24.4,60.6c0-1.3,0.9-1.8,2.1-1.8c1.2,0,2.1,0.5,2.1,1.8v2.8c0,1.3-0.9,1.8-2.1,1.8c-1.2,0-2.1-0.5-2.1-1.8    V60.6z M26.1,63.4c0,0.4,0.1,0.5,0.4,0.5c0.3,0,0.4-0.2,0.4-0.5v-2.7c0-0.4-0.1-0.5-0.4-0.5c-0.3,0-0.4,0.2-0.4,0.5V63.4z"/>
		<path class="st0" d="M30,59h1.6v0.7h0c0.2-0.5,0.7-0.9,1.3-0.9c0.7,0,1.3,0.4,1.3,1.5v4.8h-1.7v-4.4c0-0.4-0.1-0.6-0.4-0.6    c-0.3,0-0.4,0.2-0.4,0.7v4.2H30V59z"/>
		<path class="st0" d="M35.8,60.9v-0.6c0-1,0.7-1.5,2-1.5c1.3,0,2,0.6,2,1.5v3.6c0,0.5,0.1,0.9,0.2,1.2h-1.6    c-0.1-0.2-0.1-0.4-0.1-0.7h0c-0.2,0.6-0.7,0.8-1.2,0.8c-0.9,0-1.4-0.5-1.4-1.8v-0.4c0-2.5,2.6-1.4,2.6-2.6c0-0.2-0.1-0.5-0.4-0.5    c-0.4,0-0.5,0.2-0.5,0.9H35.8z M38,62.1c-0.5,0.4-0.8,0.4-0.8,1.1v0.2c0,0.4,0.2,0.5,0.5,0.5c0.1,0,0.3-0.1,0.3-0.4V62.1z"/>
		<path class="st0" d="M46.1,65.1v-4.4c0-0.5-0.1-0.6-0.3-0.6c-0.3,0-0.4,0.2-0.4,0.7v4.2h-1.7v-4.4c0-0.5-0.1-0.6-0.3-0.6    c-0.3,0-0.4,0.2-0.4,0.7v4.2h-1.7V59h1.6v0.7h0c0.1-0.3,0.5-0.8,1.3-0.8c0.6,0,1,0.3,1.1,0.9h0c0.2-0.5,0.6-0.9,1.3-0.9    c0.7,0,1.2,0.4,1.2,1.5v4.8H46.1z"/>
		<path class="st0" d="M51,62.4v0.9c0,0.4,0.2,0.5,0.5,0.5c0.3,0,0.4-0.1,0.4-0.5V63h1.5v0.5c0,1.1-0.6,1.7-2.1,1.7    c-1.4,0-2.1-0.6-2.1-1.7v-2.7c0-1.4,0.5-2,2.1-2c1.5,0,2.1,0.6,2.1,2v1.6H51z M51.9,61.3v-0.6c0-0.4-0.2-0.6-0.4-0.6    c-0.3,0-0.5,0.2-0.5,0.6v0.6H51.9z"/>
		<path class="st0" d="M54.9,59h1.6v0.7h0c0.2-0.5,0.7-0.9,1.3-0.9c0.7,0,1.3,0.4,1.3,1.5v4.8h-1.7v-4.4c0-0.4-0.1-0.6-0.4-0.6    c-0.3,0-0.4,0.2-0.4,0.7v4.2h-1.7V59z"/>
		<path class="st0" d="M60.9,57.4h1.7V59h0.9v1.4h-0.9v2.5c0,0.7,0.1,0.8,0.5,0.8h0.5v1.5h-1.7c-0.6,0-0.9-0.4-0.9-1v-3.7h-0.5V59    h0.5V57.4z"/>
		<path class="st0" d="M64.6,60.6c0-1.3,0.9-1.8,2.1-1.8c1.2,0,2.1,0.5,2.1,1.8v2.8c0,1.3-0.9,1.8-2.1,1.8c-1.2,0-2.1-0.5-2.1-1.8    V60.6z M66.3,63.4c0,0.4,0.1,0.5,0.4,0.5c0.3,0,0.4-0.2,0.4-0.5v-2.7c0-0.4-0.1-0.5-0.4-0.5c-0.3,0-0.4,0.2-0.4,0.5V63.4z"/>
	</g>
	<path d="M61.6,11.3c0,6.2-5,11.3-11.3,11.3c-6.2,0-11.3-5-11.3-11.3C39.1,5,44.1,0,50.4,0C56.6,0,61.6,5,61.6,11.3z"/>
	<path d="M61.6,40.9c0,6.2-5,11.3-11.3,11.3c-6.2,0-11.3-5-11.3-11.3c0-6.2,5-11.3,11.3-11.3C56.6,29.6,61.6,34.7,61.6,40.9z"/>
	<path class="st1" d="M59.9,11.1c0,5.3-4.3,9.6-9.6,9.6c-5.3,0-9.6-4.3-9.6-9.6c0-5.3,4.3-9.6,9.6-9.6C55.6,1.5,59.9,5.8,59.9,11.1z   "/>
</g>
</svg>