<svg xmlns="http://www.w3.org/2000/svg" xmlns:xlink="http://www.w3.org/1999/xlink" version="1.1" id="Camada_1" x="0px" y="0px" viewBox="0 0 75.2 85.7" style="enable-background:new 0 0 75.2 85.7;" xml:space="preserve" width="75.2"  height="85.7" >
<style type="text/css">
	.st0{fill:none;stroke:#FF1219;stroke-width:3.6181;stroke-miterlimit:10;}
	.st1{fill:none;stroke:#FF1219;stroke-width:3.6181;stroke-linejoin:round;stroke-miterlimit:10;}
</style>
<g>
	<path class="st0" d="M16.5,56.8c0,0,1.8-1.8,2.7-2.7c0.9-0.9,1.1-2.4-0.1-6.5c-1.1-4.1,0.1-9.2,2.3-11.3l3.6-3.6"/>
	<path class="st0" d="M63.8,49.7C60.5,52.9,47.5,66,47.5,66c-5.4,5.4-9,1.8-12.7,5.4c-1.4,1.4-1.8,1.8-1.8,1.8"/>
	
		<rect x="14.1" y="52.9" transform="matrix(0.7071 -0.7071 0.7071 0.7071 -42.4436 34.0541)" class="st0" width="11.5" height="30.7"/>
	<line class="st0" x1="49.3" y1="29.8" x2="45.7" y2="33.4"/>
	<line class="st0" x1="54.7" y1="35.2" x2="51.1" y2="38.9"/>
	<line class="st0" x1="60.1" y1="40.7" x2="56.5" y2="44.3"/>
	<path class="st0" d="M63.8,49.7c2.9-2.9,0.6-8.1-3.6-9c0.9-2-1.7-6-5.4-5.4c0.9-2.7-2.5-5.9-5.4-5.4c0-4.1-5.4-7.2-9-3.6L26.7,39.8   "/>
	<path class="st1" d="M29.3,37.1l-7.1-7.2c-0.5-0.5-1.3-0.6-1.9-0.4c-5,1.7-10.3,1-14.3-3C2.6,23,1.2,18.2,2,13.7   c0.3-1.4,2-2,3.1-0.9l6.1,6.1c0.7,0.7,1.9,0.7,2.6,0l5.1-5.1c0.7-0.7,0.7-1.9,0-2.6l-6.1-6.1c-1-1-0.5-2.8,0.9-3.1   c4.5-0.8,9.3,0.5,12.8,4c4,4,4.7,9.3,3,14.3c-0.2,0.7-0.1,1.4,0.4,1.9l7.1,7.2"/>
	<path class="st1" d="M60.5,52.9l11.2,11.1c2.1,2.1,2.1,5.6,0,7.7c-2.1,2.1-5.6,2.1-7.7,0L52.9,60.6"/>
</g>
</svg>