<svg xmlns="http://www.w3.org/2000/svg" xmlns:xlink="http://www.w3.org/1999/xlink" version="1.1" id="Camada_1" x="0px" y="0px" viewBox="0 0 80.9 80.9" style="enable-background:new 0 0 80.9 80.9;" xml:space="preserve" width="80.9"  height="80.9" >
<style type="text/css">
	.st0{fill:#FF1219;}
</style>
<g>
	<g>
		<g>
			<g>
				<path class="st0" d="M80.9,79c0-0.1,0-0.1,0-0.2c-1.5-8.4-5.3-13.5-10.4-13.5l-1.1,0c-4.6,0-8.2,0-11.8-5.2      c-0.3-0.5-0.9-0.7-1.4-0.7c-0.4,0-0.7,0.1-1,0.3c-0.8,0.5-1,1.6-0.4,2.4c4.3,6.2,9.2,6.7,13.8,6.7c0.4,0,0.7,0,1,0l0.9,0      c2.6,0,4.9,2.8,6.3,7.6c0.1,0.3,0,0.5-0.1,0.7c-0.2,0.2-0.4,0.3-0.7,0.3H5c-0.3,0-0.5-0.1-0.7-0.3c-0.2-0.2-0.2-0.5-0.1-0.7      c1.4-4.8,3.7-7.6,6.3-7.6l0.9,0c0.3,0,0.7,0,1,0h0c4.8,0,9.9-0.5,14.2-6.7c0.5-0.8,0.4-1.9-0.4-2.4c-0.3-0.2-0.6-0.3-1-0.3      c-0.6,0-1.1,0.3-1.4,0.7c-3.4,4.8-7.1,5.2-11.5,5.2l-1.8,0c-5.1,0-8.9,5-10.4,13.5C0,78.9,0,79,0,79c0,0.1,0,0.1,0,0.2      c0,0.1,0,0.1,0,0.2c0,0.1,0,0.2,0.1,0.3c0,0.1,0.1,0.2,0.1,0.3c0.1,0.1,0.1,0.2,0.2,0.3c0.1,0.1,0.1,0.1,0.2,0.2      c0.1,0.1,0.2,0.1,0.3,0.2c0.1,0,0.2,0.1,0.3,0.1c0.1,0,0.1,0.1,0.2,0.1c0.1,0,0.2,0,0.2,0l77.5,0l0,0c0.1,0,0.2,0,0.2,0      c0.1,0,0.2-0.1,0.2-0.1c0.1,0,0.2-0.1,0.3-0.1c0.1,0,0.2-0.1,0.3-0.2c0.1-0.1,0.2-0.2,0.2-0.2c0.1-0.1,0.1-0.2,0.2-0.3      c0.1-0.1,0.1-0.2,0.1-0.3c0-0.1,0-0.2,0.1-0.3c0-0.1,0-0.1,0-0.2C80.9,79.1,80.9,79.1,80.9,79z"/>
			</g>
		</g>
		<g>
			<g>
				<g>
					<path class="st0" d="M65.9,26.2c-0.2-0.1-0.4-0.2-0.5-0.4V25c0-8.2-2.1-14.4-6.3-18.6C54.9,2.1,48.6,0,40.5,0       C32.3,0,26,2.1,21.8,6.3c-4.2,4.2-6.3,10.5-6.3,18.6v0.8c-0.1,0.2-0.3,0.3-0.5,0.4c-2.8,1-4.7,3.6-4.7,6.5v5.2       c0,3.8,3.1,6.9,6.9,6.9h3.2h2h1.8c0.1,0.1,0.1,0.2,0.2,0.2c3.4,9,10.1,15.2,16.1,15.2c1,0,2.1-0.2,3.1-0.5       c0.9-0.3,1.4-1.3,1.1-2.2c-0.2-0.7-0.9-1.2-1.7-1.2c-0.2,0-0.4,0-0.5,0.1c-0.7,0.2-1.4,0.3-2.1,0.3c-6,0-15.1-9.9-15.1-24.8       c0-15,8.2-18.2,15.1-18.2c5.1,0,9,1.7,11.5,5c0.3,0.4,0.8,0.7,1.4,0.7c0.4,0,0.7-0.1,1.1-0.4c0.4-0.3,0.6-0.7,0.7-1.1       c0.1-0.5-0.1-0.9-0.3-1.3c-3.2-4.2-8.1-6.4-14.3-6.4c-9.6,0-15.9,5.3-17.9,14.8c-0.1,0.4-0.4,0.7-0.8,0.7h-2       c-0.5,0-0.8-0.4-0.8-0.8c0-7.3,1.7-12.6,5.3-16.2c3.6-3.6,8.9-5.3,16.2-5.3s12.7,1.7,16.2,5.3C60.2,12.3,62,17.6,62,25       c0,0.5-0.4,0.8-0.8,0.8H60l-3.1,0l0,0l0,0h0v0c-0.1,0-0.1,0-0.2,0c-0.9,0.1-1.6,1-1.5,1.9c0.2,1.3,0.2,2.7,0.2,4.2       c0,3.6-0.6,7.1-1.7,10.5c-0.1,0.4-0.1,0.9,0.1,1.3c0.2,0.4,0.6,0.7,1,0.9c0.1,0.1,0.3,0.1,0.4,0.1v0h0l0,0l0,0h0.7h0.6h4.4       c0.5,0,0.8,0.4,0.8,0.8c0,1.9-1.5,3.4-3.4,3.4H48.2c-0.5,0-0.8-0.4-0.8-0.8v-2.6c0-1-0.8-1.7-1.7-1.7c-1,0-1.7,0.8-1.7,1.7v5.2       c0,1,0.8,1.7,1.7,1.7h12.9c3.8,0,6.9-3.1,6.9-6.9v-0.5c0-0.4,0.2-0.7,0.6-0.8c2.8-1,4.6-3.6,4.6-6.5v-5.2       C70.6,29.8,68.7,27.2,65.9,26.2z M21.1,29.3c0.2,0,0.5,0.1,0.6,0.3c0.2,0.2,0.2,0.4,0.2,0.6l0,0.2c0,0.5,0,1.1,0,1.6       c0,2.8,0.3,5.6,0.9,8.3c0.1,0.3,0,0.5-0.2,0.7c-0.2,0.2-0.4,0.3-0.7,0.3h-4.8c-1.9,0-3.4-1.5-3.4-3.4v-5.2       c0-1.9,1.5-3.4,3.4-3.4H21.1z M67.1,37.9c0,1.9-1.5,3.4-3.4,3.4h-4.8c-0.3,0-0.5-0.1-0.7-0.3C58,40.8,58,40.5,58,40.3       c0.6-2.7,0.9-5.5,0.9-8.3c0-0.6,0-1.2-0.1-1.8c0-0.2,0.1-0.5,0.2-0.6c0.2-0.2,0.4-0.3,0.6-0.3h3.9c1.9,0,3.4,1.5,3.4,3.4V37.9z       "/>
				</g>
			</g>
		</g>
	</g>
</g>
</svg>