<svg xmlns="http://www.w3.org/2000/svg" xmlns:xlink="http://www.w3.org/1999/xlink" version="1.1" id="Camada_1" x="0px" y="0px" viewBox="0 0 64.8 79.3" style="enable-background:new 0 0 64.8 79.3;" xml:space="preserve" width="120"  height="80" >
<style type="text/css">
	.st0{fill:none;stroke:#FF1219;stroke-width:3.2403;stroke-linejoin:round;stroke-miterlimit:10;}
</style>
<g>
	<path class="st0" d="M61.4,77.7H3.4c-1,0-1.8-0.8-1.8-1.8V3.4c0-1,0.8-1.8,1.8-1.8h57.9c1,0,1.8,0.8,1.8,1.8v72.4   C63.2,76.9,62.4,77.7,61.4,77.7z"/>
	<circle class="st0" cx="32.4" cy="45.1" r="23.5"/>
	<path class="st0" d="M32.4,28.8c5.6,0,10.5,2.8,13.4,7.1c-1.5,1.9-2.6,5.3-2.6,9.2c0,3.9,1,7.3,2.6,9.2c-2.9,4.3-7.9,7.1-13.4,7.1   c-9,0-16.3-7.3-16.3-16.3C16.1,36.1,23.4,28.8,32.4,28.8z"/>
	<line class="st0" x1="12.5" y1="8.9" x2="12.5" y2="14.3"/>
	<line class="st0" x1="19.7" y1="8.9" x2="19.7" y2="14.3"/>
	<line class="st0" x1="27" y1="8.9" x2="27" y2="14.3"/>
</g>
</svg>