<?xml version="1.0" standalone="no"?>
<!DOCTYPE svg PUBLIC "-//W3C//DTD SVG 20010904//EN"
 "http://www.w3.org/TR/2001/REC-SVG-20010904/DTD/svg10.dtd">
<svg version="1.0" xmlns="http://www.w3.org/2000/svg"
 width="1279.000000pt" height="1280.000000pt" viewBox="0 0 1279.000000 1280.000000"
 preserveAspectRatio="xMidYMid meet">
<metadata>
Created by potrace 1.15, written by Peter Selinger 2001-2017
</metadata>
<g transform="translate(0.000000,1280.000000) scale(0.100000,-0.100000)"
fill="#000000" stroke="none">
<path d="M6110 12794 c-30 -2 -118 -8 -195 -14 -1156 -89 -2299 -506 -3255
-1188 -1370 -977 -2303 -2494 -2579 -4195 -57 -345 -76 -598 -76 -997 0 -399
19 -652 76 -997 256 -1578 1079 -3003 2298 -3981 865 -694 1918 -1162 3021
-1341 347 -56 600 -76 995 -76 395 0 648 20 995 76 1103 179 2156 647 3021
1341 1219 978 2042 2403 2298 3981 57 345 76 598 76 997 0 399 -19 652 -76
997 -256 1578 -1079 3003 -2298 3981 -865 694 -1918 1162 -3021 1341 -313 51
-556 71 -915 75 -170 2 -335 2 -365 0z"/>
</g>
</svg>
