<svg xmlns:xlink="http://www.w3.org/1999/xlink" xmlns="http://www.w3.org/2000/svg" viewBox="0 0 101.72 94.75" width="101.72"  height="94.75" ><defs><style>.cls-1,.cls-5{fill:#f51517;}.cls-1,.cls-2,.cls-3,.cls-4,.cls-5,.cls-6{stroke:#fff;stroke-miterlimit:10;}.cls-2{fill:none;}.cls-2,.cls-3,.cls-5{stroke-width:0.5px;}.cls-3{fill:#f81418;}.cls-6{fill:#ff1219;fill-rule:evenodd;}</style></defs><g id="Layer_2" data-name="Layer 2"><g id="Layer_1-2" data-name="Layer 1"><path class="cls-1" d="M66.31,86.43a3.86,3.86,0,0,1-3.87-3.88,3.88,3.88,0,0,0-7.76,0,3.88,3.88,0,1,0-3.87,3.94,3.87,3.87,0,0,1,3.88,3.88,3.88,3.88,0,1,0,7.75,0,3.88,3.88,0,1,0,3.87-3.94m-7.75.06a3.86,3.86,0,0,1-3.8-3.15,3.87,3.87,0,0,0,3.8,3.09,3.86,3.86,0,0,1,3.8,3.15,3.87,3.87,0,0,0-3.8-3.09"/><path class="cls-2" d="M66.31,86.43a3.86,3.86,0,0,1-3.87-3.88,3.88,3.88,0,0,0-7.76,0,3.88,3.88,0,1,0-3.87,3.94,3.87,3.87,0,0,1,3.88,3.88,3.88,3.88,0,1,0,7.75,0,3.88,3.88,0,1,0,3.87-3.94m-7.75.06a3.86,3.86,0,0,1-3.8-3.15,3.87,3.87,0,0,0,3.8,3.09,3.86,3.86,0,0,1,3.8,3.15,3.87,3.87,0,0,0-3.8-3.09"/><path class="cls-1" d="M74.17,70.88a3.9,3.9,0,1,1,0-7.8,4,4,0,0,0,3.88-3.88,3.9,3.9,0,0,0-7.8,0,3.87,3.87,0,0,1-3.88,3.88,3.88,3.88,0,1,0,0,7.76,3.9,3.9,0,1,1,0,7.8,3.87,3.87,0,0,1-3.88-3.88,3.87,3.87,0,0,0-3.87-3.88A3.87,3.87,0,0,1,54.73,67a3.91,3.91,0,0,1,3.88-3.93,3.89,3.89,0,0,0,3.87-3.88,4,4,0,0,1,3.93-3.92,3.88,3.88,0,1,0-3.88-3.88,3.87,3.87,0,0,1-3.88,3.88,3.65,3.65,0,0,0-3.92,3.92,3.87,3.87,0,0,1-3.88,3.88,3.9,3.9,0,0,0,0,7.8,3.87,3.87,0,0,1,3.88,3.88,3.87,3.87,0,0,0,3.88,3.88,3.87,3.87,0,0,1,3.87,3.88,3.91,3.91,0,0,0,7.81,0,3.87,3.87,0,0,1,3.88-3.88,3.88,3.88,0,0,0,0-7.76"/><path class="cls-2" d="M74.17,70.88a3.9,3.9,0,1,1,0-7.8,4,4,0,0,0,3.88-3.88,3.9,3.9,0,0,0-7.8,0,3.87,3.87,0,0,1-3.88,3.88,3.88,3.88,0,1,0,0,7.76,3.9,3.9,0,1,1,0,7.8,3.87,3.87,0,0,1-3.88-3.88,3.87,3.87,0,0,0-3.87-3.88A3.87,3.87,0,0,1,54.73,67a3.91,3.91,0,0,1,3.88-3.93,3.89,3.89,0,0,0,3.87-3.88,4,4,0,0,1,3.93-3.92,3.88,3.88,0,1,0-3.88-3.88,3.87,3.87,0,0,1-3.88,3.88,3.65,3.65,0,0,0-3.92,3.92,3.87,3.87,0,0,1-3.88,3.88,3.9,3.9,0,0,0,0,7.8,3.87,3.87,0,0,1,3.88,3.88,3.87,3.87,0,0,0,3.88,3.88,3.87,3.87,0,0,1,3.87,3.88,3.91,3.91,0,0,0,7.81,0,3.87,3.87,0,0,1,3.88-3.88,3.88,3.88,0,0,0,0-7.76"/><path class="cls-3" d="M20.06,16.15a3.65,3.65,0,1,0-3.64-3.65,3.66,3.66,0,0,0,3.64,3.65"/><path class="cls-2" d="M20.06,16.15a3.65,3.65,0,1,0-3.64-3.65,3.66,3.66,0,0,0,3.64,3.65"/><path class="cls-4" d="M43.26,24.1a4,4,0,0,1-3.88-3.92A3.87,3.87,0,0,0,35.5,16.3a3.87,3.87,0,0,1-3.88-3.88,3.9,3.9,0,0,0-7.8,0,3.87,3.87,0,0,1-3.88,3.88,3.87,3.87,0,0,0-3.88,3.88,3.87,3.87,0,0,1-3.87,3.88,3.9,3.9,0,0,0,0,7.8,3.87,3.87,0,0,1,3.87,3.88,3.87,3.87,0,0,0,3.88,3.88,3.87,3.87,0,0,1,3.88,3.88,3.9,3.9,0,0,0,7.8,0,3.87,3.87,0,0,1,3.88-3.88,3.88,3.88,0,0,0,0-7.76A3.87,3.87,0,0,1,31.62,28a3.88,3.88,0,1,0-3.88,3.88,3.88,3.88,0,1,1-3.92,3.88,3.87,3.87,0,0,0-3.88-3.88,3.9,3.9,0,0,1,0-7.8,3.87,3.87,0,0,0,3.88-3.88,3.91,3.91,0,0,1,3.92-3.88,3.87,3.87,0,0,1,3.88,3.88,3.87,3.87,0,0,0,3.88,3.88A3.91,3.91,0,0,1,39.38,28a3.87,3.87,0,0,0,3.88,3.88c.84,0,3.88-.81,3.88-3.88a3.87,3.87,0,0,0-3.88-3.88"/><path class="cls-3" d="M43.26,24.1a4,4,0,0,1-3.88-3.92A3.87,3.87,0,0,0,35.5,16.3a3.87,3.87,0,0,1-3.88-3.88,3.9,3.9,0,0,0-7.8,0,3.87,3.87,0,0,1-3.88,3.88,3.87,3.87,0,0,0-3.88,3.88,3.87,3.87,0,0,1-3.87,3.88,3.9,3.9,0,0,0,0,7.8,3.87,3.87,0,0,1,3.87,3.88,3.87,3.87,0,0,0,3.88,3.88,3.87,3.87,0,0,1,3.88,3.88,3.9,3.9,0,0,0,7.8,0,3.87,3.87,0,0,1,3.88-3.88,3.88,3.88,0,0,0,0-7.76A3.87,3.87,0,0,1,31.62,28a3.88,3.88,0,1,0-3.88,3.88,3.88,3.88,0,1,1-3.92,3.88,3.87,3.87,0,0,0-3.88-3.88,3.9,3.9,0,0,1,0-7.8,3.87,3.87,0,0,0,3.88-3.88,3.91,3.91,0,0,1,3.92-3.88,3.87,3.87,0,0,1,3.88,3.88,3.87,3.87,0,0,0,3.88,3.88A3.91,3.91,0,0,1,39.38,28a3.87,3.87,0,0,0,3.88,3.88c.84,0,3.88-.81,3.88-3.88a3.87,3.87,0,0,0-3.88-3.88"/><path class="cls-4" d="M12.13,31.94a3.86,3.86,0,0,1-3.87-3.88,3.88,3.88,0,1,0-3.88,3.88,3.86,3.86,0,0,1,3.88,3.87,3.88,3.88,0,1,0,3.87-3.87"/><path class="cls-3" d="M12.13,31.94a3.86,3.86,0,0,1-3.87-3.88,3.88,3.88,0,1,0-3.88,3.88,3.86,3.86,0,0,1,3.88,3.87,3.88,3.88,0,1,0,3.87-3.87"/><path class="cls-3" d="M27.83,8.48a3.87,3.87,0,0,1,3.88,3.87,3.88,3.88,0,1,0,7.75,0,3.9,3.9,0,0,1,7.8,0,3.87,3.87,0,0,0,3.88,3.88,3.18,3.18,0,0,1,3.32,3.55c0,.09,0,.17,0,.25a3.87,3.87,0,0,0,6.93,2.38l.1-.12c.08-.12.15-.24.22-.37s.12-.21.18-.33,0-.13.07-.2a4.75,4.75,0,0,0,.18-.57h0a4.16,4.16,0,0,0,.09-.63c0-.07,0-.13,0-.2a3.86,3.86,0,0,1,3.87-3.82A3.91,3.91,0,0,1,70,20a3.88,3.88,0,1,0,3.88-3.87A3.91,3.91,0,0,1,70,12.23c-.5-4.09-3.93-3.88-3.93-3.88a3.87,3.87,0,0,0-3.88,3.88,3.86,3.86,0,0,1-3.62,3.9h0A3.47,3.47,0,0,1,55,12.35a3.86,3.86,0,0,0-3.88-3.87A3.87,3.87,0,0,1,47.26,4.6a3.9,3.9,0,0,0-7.8,0,3.88,3.88,0,1,1-7.75,0c.09-6.76-8.66-4.75-7.76,0a3.87,3.87,0,0,0,3.88,3.88"/><path class="cls-2" d="M27.83,8.48a3.87,3.87,0,0,1,3.88,3.87,3.88,3.88,0,1,0,7.75,0,3.9,3.9,0,0,1,7.8,0,3.87,3.87,0,0,0,3.88,3.88,3.18,3.18,0,0,1,3.32,3.55c0,.09,0,.17,0,.25a3.87,3.87,0,0,0,6.93,2.38l.1-.12c.08-.12.15-.24.22-.37s.12-.21.18-.33,0-.13.07-.2a4.75,4.75,0,0,0,.18-.57h0a4.16,4.16,0,0,0,.09-.63c0-.07,0-.13,0-.2a3.86,3.86,0,0,1,3.87-3.82A3.91,3.91,0,0,1,70,20a3.88,3.88,0,1,0,3.88-3.87A3.91,3.91,0,0,1,70,12.23c-.5-4.09-3.93-3.88-3.93-3.88a3.87,3.87,0,0,0-3.88,3.88,3.86,3.86,0,0,1-3.62,3.9h0A3.47,3.47,0,0,1,55,12.35a3.86,3.86,0,0,0-3.88-3.87A3.87,3.87,0,0,1,47.26,4.6a3.9,3.9,0,0,0-7.8,0,3.88,3.88,0,1,1-7.75,0c.09-6.76-8.66-4.75-7.76,0a3.87,3.87,0,0,0,3.88,3.88"/><path class="cls-3" d="M66.11,24.06A3.87,3.87,0,0,0,70,20.18a3.76,3.76,0,0,0-3.88-3.88,3.87,3.87,0,0,0-3.88,3.88,3.87,3.87,0,0,1-3.88,3.88,3.9,3.9,0,0,0,0,7.8,3.87,3.87,0,0,1,3.88,3.88,3.87,3.87,0,0,0,3.88,3.88A3.87,3.87,0,0,1,70,43.5a3.9,3.9,0,0,0,7.8,0,3.87,3.87,0,0,1,3.88-3.88,3.88,3.88,0,0,0,0-7.76A3.87,3.87,0,0,1,77.79,28a3.88,3.88,0,1,0-3.88,3.88A3.88,3.88,0,1,1,70,35.74a3.87,3.87,0,0,0-3.88-3.88,3.9,3.9,0,0,1,0-7.8"/><path class="cls-2" d="M66.11,24.06A3.87,3.87,0,0,0,70,20.18a3.76,3.76,0,0,0-3.88-3.88,3.87,3.87,0,0,0-3.88,3.88,3.87,3.87,0,0,1-3.88,3.88,3.9,3.9,0,0,0,0,7.8,3.87,3.87,0,0,1,3.88,3.88,3.87,3.87,0,0,0,3.88,3.88A3.87,3.87,0,0,1,70,43.5a3.9,3.9,0,0,0,7.8,0,3.87,3.87,0,0,1,3.88-3.88,3.88,3.88,0,0,0,0-7.76A3.87,3.87,0,0,1,77.79,28a3.88,3.88,0,1,0-3.88,3.88A3.88,3.88,0,1,1,70,35.74a3.87,3.87,0,0,0-3.88-3.88,3.9,3.9,0,0,1,0-7.8"/><path class="cls-4" d="M97.36,39.65a3.87,3.87,0,0,1-3.86-3.9,3.87,3.87,0,0,0-3.86-3.9A3.86,3.86,0,0,1,85.78,28a3.91,3.91,0,0,0-7.81,0c.07,1.75.63,3.49,3.91,3.9a3.87,3.87,0,0,1,3.86,3.9,3.87,3.87,0,0,0,3.86,3.89,3.9,3.9,0,0,1,.08,7.79,1.69,1.69,0,0,0-.23,0,3.86,3.86,0,0,0-2,.66l0,0a3.57,3.57,0,0,0-.37.31l-.23.2c0,.05-.09.11-.14.17a3.81,3.81,0,0,0-1,2.52c0,.09,0,.17,0,.25a3.84,3.84,0,0,1-3.5,3.84l-.21,0a3.88,3.88,0,0,0-3.87,3.9,3.86,3.86,0,0,1-3.86,3.89A3.88,3.88,0,1,0,78.14,67,3.88,3.88,0,0,1,82,63.1a3.87,3.87,0,0,0,3.86-3.88l.09-.08a3.85,3.85,0,0,1,3.54-4h0a3.84,3.84,0,0,0,2.28-.74l.2-.16a2.89,2.89,0,0,0,.32-.29,2.57,2.57,0,0,0,.34-.4,1.13,1.13,0,0,0,.1-.13,3.84,3.84,0,0,0,.68-2.32v0a3.86,3.86,0,0,1,3.87-3.64,3.9,3.9,0,0,0,0-7.8"/><path class="cls-5" d="M97.36,39.65a3.87,3.87,0,0,1-3.86-3.9,3.87,3.87,0,0,0-3.86-3.9A3.86,3.86,0,0,1,85.78,28a3.91,3.91,0,0,0-7.81,0c.07,1.75.63,3.49,3.91,3.9a3.87,3.87,0,0,1,3.86,3.9,3.87,3.87,0,0,0,3.86,3.89,3.9,3.9,0,0,1,.08,7.79,1.69,1.69,0,0,0-.23,0,3.86,3.86,0,0,0-2,.66l0,0a3.57,3.57,0,0,0-.37.31l-.23.2c0,.05-.09.11-.14.17a3.81,3.81,0,0,0-1,2.52c0,.09,0,.17,0,.25a3.84,3.84,0,0,1-3.5,3.84l-.21,0a3.88,3.88,0,0,0-3.87,3.9,3.86,3.86,0,0,1-3.86,3.89A3.88,3.88,0,1,0,78.14,67,3.88,3.88,0,0,1,82,63.1a3.87,3.87,0,0,0,3.86-3.88l.09-.08a3.85,3.85,0,0,1,3.54-4h0a3.84,3.84,0,0,0,2.28-.74l.2-.16a2.89,2.89,0,0,0,.32-.29,2.57,2.57,0,0,0,.34-.4,1.13,1.13,0,0,0,.1-.13,3.84,3.84,0,0,0,.68-2.32v0a3.86,3.86,0,0,1,3.87-3.64,3.9,3.9,0,0,0,0-7.8"/><rect class="cls-1" x="51.95" y="92.44" width="20.21" height="1.81"/><rect class="cls-2" x="51.95" y="92.44" width="20.21" height="1.81"/><polygon class="cls-6" points="50.53 24.83 56.08 42.01 74.13 41.98 59.51 52.56 65.12 69.73 50.53 59.09 35.94 69.73 41.55 52.56 26.93 41.98 44.98 42.01 50.53 24.83"/></g></g></svg>