<?xml version="1.0" encoding="utf-8"?>
<!-- Generator: Adobe Illustrator 23.0.0, SVG Export Plug-In . SVG Version: 6.00 Build 0)  -->
<svg version="1.1" id="Camada_1" xmlns="http://www.w3.org/2000/svg" xmlns:xlink="http://www.w3.org/1999/xlink" x="0px" y="0px"
	 viewBox="0 0 82.5 82.8" style="enable-background:new 0 0 82.5 82.8;" xml:space="preserve">
<style type="text/css">
	.st0{fill:#FF1219;}
</style>
<g>
	<g>
		<g>
			<path class="st0" d="M20.8,82.8c-5.7,0-11-4-14.9-11.4C2.1,64.3,0,55,0,45c0-9.9,2.1-19.3,5.8-26.3c3.9-7.3,9.2-11.4,14.9-11.4
				h15.9c0.7,0,1.3,0.6,1.3,1.3S37.4,10,36.7,10H20.8c-4.7,0-9.1,3.5-12.5,9.9C4.7,26.6,2.7,35.5,2.7,45c0,9.5,2,18.4,5.5,25.1
				c3.4,6.4,7.9,9.9,12.5,9.9l17.8,0c2.6,0,6.6-1.1,10.5-6.6c3.1-4.4,5.5-10.6,6.7-17.6c0,0,0.3-2,0.5-5.3c0-0.7,0.7-1.3,1.4-1.3
				c0.7,0,1.3,0.7,1.3,1.4c-0.2,3.5-0.5,5.5-0.5,5.6c-2.7,15.8-10.7,26.5-19.8,26.5L20.8,82.8z"/>
			<path class="st0" d="M26.4,82.3c-5.5,0-10.7-3.9-14.5-11.1c-3.7-7-5.8-16.3-5.8-26.1c0-9.9,2.1-19.1,5.8-26.1
				c3.8-7.2,9-11.1,14.5-11.1c0.5,0,0.9,0.4,0.9,0.9s-0.4,0.9-0.9,0.9c-4.8,0-9.4,3.6-12.9,10.1c-3.6,6.7-5.6,15.7-5.6,25.3
				c0,9.6,2,18.5,5.6,25.3c3.5,6.6,8.1,10.2,12.9,10.2c0.5,0,0.9,0.4,0.9,0.9S26.9,82.3,26.4,82.3z"/>
			<path class="st0" d="M39.3,82.3c-5,0-9.6-4-13-11.2c-3.3-7-5.1-16.2-5.1-26.1c0-18.5,6.4-34,15.2-36.8c0.5-0.1,1,0.1,1.1,0.6
				c0.2,0.5-0.1,1-0.6,1.1c-8,2.5-14,17.6-14,35.1c0,9.6,1.8,18.6,4.9,25.3c3.1,6.5,7.1,10.1,11.3,10.1c0.5,0,0.9,0.4,0.9,0.9
				S39.8,82.3,39.3,82.3z"/>
			<path class="st0" d="M32.2,82.3c-5,0-9.6-4-13-11.2c-3.3-7-5.1-16.2-5.1-26.1c0-9.8,1.8-19.1,5.1-26.1c3.4-7.2,8-11.1,13-11.1
				c0.5,0,0.9,0.4,0.9,0.9s-0.4,0.9-0.9,0.9c-4.2,0-8.3,3.6-11.3,10.1c-3.2,6.7-4.9,15.7-4.9,25.3c0,9.6,1.8,18.6,4.9,25.3
				c3.1,6.5,7.1,10.1,11.3,10.1c0.5,0,0.9,0.4,0.9,0.9S32.7,82.3,32.2,82.3z"/>
			<path class="st0" d="M42,64.2c-1.6,0-3.9-1.1-5.7-6.3c-1.2-3.6-1.9-8.4-1.9-13.4c0-2.9,0-4.4,0.4-6.9c0.1-0.7,0.8-1.2,1.5-1.1
				c0.7,0.1,1.2,0.8,1.1,1.5c-0.4,2.3-0.4,3.6-0.4,6.4c0,4.8,0.6,9.2,1.7,12.5c1,3.1,2.3,4.5,3.1,4.5c1,0,2.1-1.8,2.7-3.4
				c1-2.5,1.8-6.1,2-10c0.1-0.7,0.7-1.3,1.4-1.3c0.7,0.1,1.3,0.7,1.3,1.4c-0.3,4.2-1.1,8.1-2.2,10.9C45.5,63.3,43.4,64.2,42,64.2z"
				/>
		</g>
	</g>
	<path class="st0" d="M59.5,46.1c-12.7,0-23-10.3-23-23s10.3-23,23-23s23,10.3,23,23S72.2,46.1,59.5,46.1z M59.5,2.7
		c-11.2,0-20.3,9.1-20.3,20.3s9.1,20.3,20.3,20.3c11.2,0,20.3-9.1,20.3-20.3S70.7,2.7,59.5,2.7z"/>
	<path class="st0" d="M60.7,35.3h-2.4c-1.3,0-2.3-1-2.3-2.3c0-0.3-0.2-0.5-0.3-0.5c-0.1,0-0.4-0.1-0.6,0.1l0,0
		c-0.9,0.9-2.4,0.9-3.3,0L50,30.9c-0.4-0.4-0.7-1-0.7-1.7c0-0.6,0.2-1.2,0.7-1.7c0.2-0.2,0.2-0.5,0.1-0.6c0-0.1-0.2-0.3-0.5-0.3
		h-0.1c-1.3,0-2.3-1-2.3-2.3v-2.4c0-1.3,1-2.3,2.3-2.3h0.1c0.3,0,0.5-0.2,0.5-0.3c0-0.1,0.1-0.4-0.1-0.6L50,18.6
		c-0.9-0.9-0.9-2.4,0-3.3l1.7-1.7c0.4-0.4,1-0.7,1.7-0.7c0,0,0,0,0,0c0.6,0,1.2,0.2,1.7,0.7l0,0c0.2,0.2,0.5,0.2,0.6,0.1
		c0.1,0,0.3-0.2,0.3-0.5v-0.1c0-1.3,1-2.3,2.3-2.3h2.4c1.3,0,2.3,1,2.3,2.3v0.1c0,0.3,0.2,0.5,0.3,0.5c0.1,0,0.4,0.1,0.6-0.1l0,0
		c0.9-0.9,2.4-0.9,3.3,0l1.7,1.7c0.9,0.9,0.9,2.4,0,3.3L69,18.6c-0.2,0.2-0.2,0.5-0.1,0.6c0,0.1,0.2,0.3,0.5,0.3h0.1
		c1.3,0,2.3,1,2.3,2.3v2.4c0,1.3-1,2.3-2.3,2.3h-0.1c-0.3,0-0.5,0.2-0.5,0.3c0,0.1-0.1,0.4,0.1,0.6c0.4,0.4,0.7,1,0.7,1.7
		c0,0.6-0.2,1.2-0.7,1.7l-1.7,1.7c-0.9,0.9-2.4,0.9-3.3,0l0,0c-0.2-0.2-0.5-0.2-0.6-0.1c-0.1,0-0.3,0.2-0.3,0.5
		C63,34.2,62,35.3,60.7,35.3z M55.4,30.6c0.3,0,0.6,0.1,0.9,0.2c0.9,0.4,1.4,1.2,1.4,2.2c0,0.3,0.2,0.5,0.5,0.5h2.4
		c0.3,0,0.5-0.2,0.5-0.5c0-1,0.6-1.8,1.4-2.2c0.9-0.4,1.9-0.2,2.5,0.5l0,0c0.2,0.2,0.6,0.2,0.8,0l1.7-1.7c0.1-0.1,0.2-0.2,0.2-0.4
		c0-0.1-0.1-0.3-0.2-0.4c-0.7-0.7-0.9-1.7-0.5-2.6c0.4-0.9,1.2-1.4,2.2-1.4h0.1c0.3,0,0.5-0.2,0.5-0.5v-2.4c0-0.3-0.2-0.5-0.5-0.5
		h-0.1c-1,0-1.8-0.6-2.2-1.4C66.8,19,67,18,67.7,17.4l0.1-0.1c0.2-0.2,0.2-0.6,0-0.8L66,14.8c-0.2-0.2-0.6-0.2-0.8,0l0,0
		c-0.7,0.7-1.7,0.9-2.5,0.5c-0.9-0.4-1.4-1.2-1.4-2.2v-0.1c0-0.3-0.2-0.5-0.5-0.5h-2.4c-0.3,0-0.5,0.2-0.5,0.5v0.1
		c0,0.9-0.6,1.8-1.4,2.2c-0.9,0.4-1.9,0.2-2.5-0.5l0,0c-0.1-0.1-0.2-0.2-0.4-0.2h0c-0.1,0-0.3,0.1-0.4,0.2l-1.7,1.7
		c-0.2,0.2-0.2,0.6,0,0.8l0.1,0.1c0.7,0.7,0.9,1.7,0.5,2.5c-0.4,0.9-1.2,1.4-2.2,1.4h-0.1c-0.3,0-0.5,0.2-0.5,0.5v2.4
		c0,0.3,0.2,0.5,0.5,0.5h0.1c1,0,1.8,0.6,2.2,1.4c0.4,0.9,0.2,1.9-0.5,2.6c-0.1,0.1-0.2,0.2-0.2,0.4c0,0.1,0.1,0.3,0.2,0.4l1.7,1.7
		c0.2,0.2,0.6,0.2,0.8,0l0,0C54.2,30.8,54.8,30.6,55.4,30.6z"/>
	<path class="st0" d="M59.5,27.2c-2.3,0-4.2-1.9-4.2-4.2s1.9-4.2,4.2-4.2c2.3,0,4.2,1.9,4.2,4.2S61.8,27.2,59.5,27.2z M59.5,20.7
		c-1.3,0-2.4,1.1-2.4,2.4c0,1.3,1.1,2.4,2.4,2.4c1.3,0,2.4-1.1,2.4-2.4C61.9,21.7,60.8,20.7,59.5,20.7z"/>
</g>
</svg>
