<?xml version="1.0" encoding="utf-8"?>
<!-- Generator: Adobe Illustrator 23.0.0, SVG Export Plug-In . SVG Version: 6.00 Build 0)  -->
<svg version="1.1" id="Camada_1" xmlns="http://www.w3.org/2000/svg" xmlns:xlink="http://www.w3.org/1999/xlink" x="0px" y="0px"
	 viewBox="0 0 83.5 81.7" style="enable-background:new 0 0 83.5 81.7;" xml:space="preserve">
<style type="text/css">
	.st0{fill:none;stroke:#FF1219;stroke-width:3.4783;stroke-miterlimit:10;}
	.st1{fill:none;stroke:#FF1219;stroke-width:3.4783;stroke-linejoin:round;stroke-miterlimit:10;}
</style>
<g>
	<path class="st0" d="M17.4,41.7c4,0,7-3.3,7-7.5v-2.5c0-4.1-3-7.5-7-7.5c-4,0-7,3.3-7,7.5v2.5C10.4,38.4,13.4,41.7,17.4,41.7z"/>
	<path class="st1" d="M29.6,50.4c-2.3-1.2-5.1-3.3-8.7-3.5c-5.8,0-7.4,0-8.7,0C5.9,47,1.7,49.6,1.7,57.4v7c0,7,5.6,8.7,10.4,8.7h7"
		/>
	<path class="st1" d="M10.4,55.7v7c0,1,0.8,1.7,1.7,1.7h10.4"/>
	<line class="st1" x1="8.7" y1="73" x2="8.7" y2="81.7"/>
	<line class="st1" x1="27.8" y1="76.5" x2="27.8" y2="81.7"/>
	<path class="st1" d="M39.6,69.6H33l3.5-7h5.9c1.3,0,2.1,1.4,1.6,2.5l-1.3,2.5C42.1,68.8,40.9,69.6,39.6,69.6z"/>
	<line class="st1" x1="17.4" y1="53.9" x2="24.3" y2="62.6"/>
	<polyline class="st1" points="41.7,62.6 45.2,55.7 27.8,55.7 17.4,76.5 34.8,76.5 38.3,69.6 	"/>
	<path class="st1" d="M48.7,41.7V40c0-1.6-1.4-3-2.5-4.1c-1.6-1.7-2.7-3.7-2.7-6.3c0-4.8,3.9-8.7,8.7-8.7s8.7,3.9,8.7,8.7
		c0,2.6-1.1,4.6-2.7,6.3c-1.1,1.1-2.5,2.6-2.5,4.1v1.7H48.7z"/>
	<line class="st1" x1="52.2" y1="15.7" x2="52.2" y2="7"/>
	<line class="st1" x1="41.1" y1="18.5" x2="36.2" y2="13.6"/>
	<line class="st1" x1="38.3" y1="29.6" x2="29.6" y2="29.6"/>
	<line class="st1" x1="41.1" y1="40.6" x2="36.2" y2="45.6"/>
	<line class="st1" x1="63.2" y1="40.6" x2="68.2" y2="45.6"/>
	<line class="st1" x1="66.1" y1="29.6" x2="74.8" y2="29.6"/>
	<line class="st1" x1="63.2" y1="18.5" x2="68.2" y2="13.6"/>
	<polyline class="st1" points="48.7,41.7 48.7,45.2 50.4,47 53.9,47 55.7,45.2 55.7,41.7 	"/>
	<path class="st1" d="M20.9,19.1V7c0-2.9,2.3-5.2,5.2-5.2h50.4c2.9,0,5.2,2.3,5.2,5.2v43.5c0,2.9-2.3,5.2-5.2,5.2h-5.2L60.4,67.9
		c-1.1,1.2-3,0.4-3-1.2V55.7h-7"/>
</g>
</svg>
