<?xml version="1.0" encoding="utf-8"?>
<!-- Generator: Adobe Illustrator 23.0.0, SVG Export Plug-In . SVG Version: 6.00 Build 0)  -->
<svg version="1.1" id="Camada_1" xmlns="http://www.w3.org/2000/svg" xmlns:xlink="http://www.w3.org/1999/xlink" x="0px" y="0px"
	 viewBox="0 0 104.9 48.3" style="enable-background:new 0 0 104.9 48.3;" xml:space="preserve">
<style type="text/css">
	.st0{fill:#1D1A1B;}
</style>
<g>
	<path class="st0" d="M49.8,39.1c0-5.8,3.4-9.2,8.8-9.2c4.7,0,8.2,3,8.2,7.4h-5c-0.1-2-1.4-3.4-3.2-3.4c-2.1,0-3.5,1.9-3.5,5.1
		c0,3.2,1.3,5.1,3.5,5.1c1.8,0,3.1-1.3,3.3-3.4h5c0,4.4-3.5,7.5-8.3,7.5C53.2,48.3,49.8,44.9,49.8,39.1"/>
	<path class="st0" d="M74,43.8h1.6c2.6,0,4-1.6,4-4.9c0-3-1.5-4.6-4-4.6H74V43.8z M76.4,30.2c5.4,0,8.5,3.1,8.5,8.7
		c0,5.7-3.2,9-8.5,9h-7.6V30.2H76.4z"/>
	<polygon class="st0" points="87,48 87,30.2 99.4,30.2 99.4,34.4 92.2,34.4 92.2,37.8 98.8,37.8 98.8,41.7 92.2,41.7 92.2,48 	"/>
	<path class="st0" d="M99.8,45.6c0-1.4,1.1-2.6,2.6-2.6c1.4,0,2.6,1.1,2.6,2.6c0,1.4-1.1,2.6-2.6,2.6C101,48.1,99.8,47,99.8,45.6"/>
	<g>
		<path class="st0" d="M0.4,25.2L0,1.8l16.5-0.3L16.6,7L7,7.2L7,11l9-0.1l0.1,4.9l-9,0.1l0.1,3.8l9.6-0.2l0.1,5.5L0.4,25.2z"/>
		<path class="st0" d="M19.1,15.8c0-2.9,0.6-5.2,1.8-6.9c1.2-1.7,3-2.5,5.3-2.5c1.3,0,2.4,0.3,3.4,0.9c1,0.6,1.6,1.5,2,2.5l0.1,0
			l-0.2-9.7L38.3,0l0.4,24.6L32,24.7L32,21.6l-0.1,0c-0.3,1-0.9,1.8-1.9,2.5c-1,0.7-2.1,1-3.5,1c-2.2,0-4-0.8-5.3-2.4
			C19.8,21,19.2,18.7,19.1,15.8z M26,15.7c0,1.3,0.3,2.4,0.8,3.1c0.5,0.7,1.3,1.1,2.2,1.1c0.9,0,1.7-0.4,2.2-1.1s0.8-1.8,0.7-3.1
			c0-1.3-0.3-2.4-0.8-3.1c-0.5-0.7-1.3-1.1-2.2-1.1c-0.9,0-1.6,0.4-2.2,1.2C26.2,13.3,25.9,14.4,26,15.7z"/>
		<path class="st0" d="M41.1,18L40.9,6.3l6.6-0.1l0.2,10.2c0,1,0.3,1.7,0.8,2.2c0.5,0.5,1.2,0.8,2.1,0.8c0.8,0,1.4-0.3,1.9-0.9
			c0.5-0.6,0.8-1.3,0.7-2.2L53.1,6.2L59.8,6l0.3,18.2l-6.5,0.1l-0.1-3.6l-0.1,0c-0.3,1.2-1,2.2-2,2.9c-1,0.7-2.1,1.1-3.5,1.1
			c-2,0-3.6-0.6-4.9-1.8C41.8,21.8,41.1,20.2,41.1,18z"/>
		<path class="st0" d="M62,15.1c0-3,0.8-5.3,2.4-7s4-2.6,6.9-2.7c2.6,0,4.7,0.6,6.4,2s2.5,3.3,2.5,5.8l-6,0.1
			c-0.1-0.9-0.4-1.7-0.9-2.2c-0.5-0.5-1.1-0.8-1.8-0.8c-0.9,0-1.6,0.4-2.1,1.2s-0.7,2-0.7,3.4c0,1.5,0.3,2.7,0.8,3.5
			c0.5,0.8,1.2,1.2,2.1,1.2c0.8,0,1.4-0.3,1.9-0.8c0.5-0.5,0.7-1.2,0.8-2.2l6-0.1c0,2.4-0.8,4.4-2.3,5.8c-1.5,1.4-3.6,2.1-6.3,2.2
			c-3,0-5.3-0.8-7-2.4C62.9,20.4,62.1,18.1,62,15.1z"/>
		<path class="st0" d="M81.7,18.5c0-1.7,0.6-3.1,1.9-4c1.3-1,3.1-1.5,5.6-1.7l4-0.3l0-0.9c0-0.6-0.2-1.1-0.6-1.4
			c-0.4-0.3-1-0.5-1.6-0.5c-0.7,0-1.2,0.2-1.7,0.5s-0.7,0.8-0.7,1.3l-6,0.1c0.1-1.9,0.9-3.5,2.4-4.7c1.5-1.2,3.6-1.8,6.3-1.8
			c2.5,0,4.5,0.5,6.1,1.6c1.6,1.1,2.4,2.6,2.4,4.5l0.2,12.5l-6.5,0.1l0-2.5l-0.1,0c-0.4,0.9-1.2,1.6-2.1,2.1s-2,0.8-3.1,0.8
			c-1.7,0-3.2-0.5-4.4-1.5C82.4,21.5,81.7,20.2,81.7,18.5z M88.3,17.9c0,0.5,0.2,0.9,0.6,1.2c0.4,0.3,0.9,0.4,1.5,0.4
			c0.8,0,1.5-0.2,2.1-0.7c0.6-0.4,0.9-1,0.8-1.6l0-1.2l-2.9,0.3c-0.7,0.1-1.2,0.2-1.5,0.5C88.5,17.1,88.3,17.5,88.3,17.9z"/>
	</g>
</g>
</svg>
