<?xml version="1.0" encoding="utf-8"?>
<!-- Generator: Adobe Illustrator 23.0.0, SVG Export Plug-In . SVG Version: 6.00 Build 0)  -->
<svg version="1.1" id="Camada_1" xmlns="http://www.w3.org/2000/svg" xmlns:xlink="http://www.w3.org/1999/xlink" x="0px" y="0px"
	 viewBox="0 0 288.8 97" style="enable-background:new 0 0 288.8 97;" xml:space="preserve">
<style type="text/css">
	.st0{fill:#FFFFFF;}
</style>
<title>CDF</title>
<g id="Layer_2">
	<g id="Layer_1-2">
		<g id="Layer_2-2">
			<g id="Layer_1-2-2">
				<path class="st0" d="M46.5,97C71.8,97,90,81,90.2,57.6H63.8C62.9,68.4,56,75.4,46.6,75.4c-11.4,0-18.5-10-18.5-27
					c0-16.8,7.1-26.8,18.5-26.8c9.5,0,16.5,7.1,17.2,17.7H90C90,16.1,71.3,0,46.5,0C17.9,0,0,17.5,0,48.5S17.8,97,46.5,97z"/>
				<path class="st0" d="M99.7,1.6v93.7h40.1c28.4,0,45.1-17.5,45.1-47.5S168.2,1.6,139.8,1.6H99.7z M127.2,23.5h8.6
					c13.2,0,21,8.5,21,24.3c0,17.3-7.2,25.7-21,25.7h-8.6V23.5z"/>
				<path class="st0" d="M222.3,95.3V62.2H257V41.5h-34.7v-18h38.3V1.6h-65.9v93.7H222.3z"/>
				<path class="st0" d="M275.3,96.3c7.5,0,13.5-6,13.5-13.5c0-7.5-6-13.5-13.5-13.5c-7.5,0-13.5,6-13.5,13.5S267.8,96.3,275.3,96.3
					L275.3,96.3z"/>
			</g>
		</g>
		<path class="st0" d="M267,28"/>
	</g>
</g>
</svg>
