<svg xmlns="http://www.w3.org/2000/svg" viewBox="0 0 288.81 97"><defs><style>.cls-1{fill:#fff;}</style></defs><title>CDF</title><g id="Layer_2" data-name="Layer 2"><g id="Layer_1-2" data-name="Layer 1"><g id="Layer_2-2" data-name="Layer 2"><g id="Layer_1-2-2" data-name="Layer 1-2"><path class="cls-1" d="M46.51,97C71.78,97,90,81,90.16,57.57H63.78c-.84,10.85-7.73,17.8-17.21,17.8-11.43,0-18.51-10-18.51-27,0-16.76,7.14-26.76,18.45-26.76,9.55,0,16.5,7.08,17.15,17.73H90C90,16.11,71.25,0,46.51,0,17.86,0,0,17.54,0,48.46S17.8,97,46.51,97Z"/><path class="cls-1" d="M99.68,1.62V95.35h40.08c28.38,0,45.14-17.54,45.14-47.55S168.21,1.62,139.76,1.62Zm27.54,21.89h8.64c13.19,0,21,8.51,21,24.29,0,17.28-7.21,25.66-21,25.66h-8.64Z"/><path class="cls-1" d="M222.3,95.35V62.16H257V41.51H222.3v-18h38.32V1.62H194.76V95.35Z"/><path class="cls-1" d="M275.3,96.26a13.51,13.51,0,1,0-13.51-13.51A13.51,13.51,0,0,0,275.3,96.26Z"/></g></g><path class="cls-1" d="M267,28"/></g></g></svg>